{
    "asset" : {
        "generator" : "Khronos glTF Blender I/O v1.0.5",
        "version" : "2.0"
    },
    "scene" : 0,
    "scenes" : [
        {
            "name" : "Scene",
            "nodes" : [
                0,
                1,
                2,
                3,
                4,
                5
            ]
        }
    ],
    "nodes" : [
        {
            "name" : "Light",
            "rotation" : [
                0.16907575726509094,
                0.7558803558349609,
                -0.27217137813568115,
                0.570947527885437
            ],
            "translation" : [
                4.076245307922363,
                5.903861999511719,
                -1.0054539442062378
            ]
        },
        {
            "name" : "Camera",
            "rotation" : [
                0.483536034822464,
                0.33687159419059753,
                -0.20870360732078552,
                0.7804827094078064
            ],
            "translation" : [
                7.358891487121582,
                4.958309173583984,
                6.925790786743164
            ]
        },
        {
            "mesh" : 0,
            "name" : "Circle",
            "scale" : [
                0.5891847610473633,
                0.5891847610473633,
                0.5891847610473633
            ],
            "translation" : [
                0,
                2.3340466022491455,
                0
            ]
        },
        {
            "name" : "Sun",
            "rotation" : [
                0.005617004353553057,
                -0.0748787522315979,
                -0.26813241839408875,
                0.9604512453079224
            ],
            "translation" : [
                1.0332648754119873,
                3.1995630264282227,
                0.019929511472582817
            ]
        },
        {
            "mesh" : 1,
            "name" : "Circle.001",
            "rotation" : [
                0.7071067690849304,
                0,
                0,
                0.7071067690849304
            ],
            "translation" : [
                0,
                1.0868338346481323,
                0
            ]
        },
        {
            "mesh" : 2,
            "name" : "Circle.002",
            "scale" : [
                0.5144171118736267,
                0.5144171118736267,
                0.5144171118736267
            ],
            "translation" : [
                0,
                2.693981409072876,
                0
            ]
        }
    ],
    "materials" : [
        {
            "alphaCutoff" : 0.5,
            "alphaMode" : "MASK",
            "name" : "Diamant",
            "pbrMetallicRoughness" : {
                "baseColorFactor" : [
                    0.6387643218040466,
                    0.7393976449966431,
                    1,
                    1
                ],
                "metallicFactor" : 0,
                "roughnessFactor" : 0.04999999701976776
            }
        },
        {
            "doubleSided" : true,
            "name" : "Gold",
            "pbrMetallicRoughness" : {
                "baseColorFactor" : [
                    0.8000000715255737,
                    0.5832923650741577,
                    0.2768701910972595,
                    1
                ],
                "metallicFactor" : 1,
                "roughnessFactor" : 0.06363636255264282
            }
        }
    ],
    "meshes" : [
        {
            "name" : "Circle",
            "primitives" : [
                {
                    "attributes" : {
                        "POSITION" : 0,
                        "NORMAL" : 1,
                        "TEXCOORD_0" : 2
                    },
                    "indices" : 3,
                    "material" : 0
                }
            ]
        },
        {
            "name" : "Circle.001",
            "primitives" : [
                {
                    "attributes" : {
                        "POSITION" : 4,
                        "NORMAL" : 5,
                        "TEXCOORD_0" : 6
                    },
                    "indices" : 7,
                    "material" : 1
                }
            ]
        },
        {
            "name" : "Circle.002",
            "primitives" : [
                {
                    "attributes" : {
                        "POSITION" : 8,
                        "NORMAL" : 9,
                        "TEXCOORD_0" : 10
                    },
                    "indices" : 11,
                    "material" : 1
                }
            ]
        }
    ],
    "accessors" : [
        {
            "bufferView" : 0,
            "componentType" : 5126,
            "count" : 144,
            "max" : [
                0.8709926605224609,
                0.8881141543388367,
                0.8709926605224609
            ],
            "min" : [
                -0.8709926605224609,
                0.003335297107696533,
                -0.8709926605224609
            ],
            "type" : "VEC3"
        },
        {
            "bufferView" : 1,
            "componentType" : 5126,
            "count" : 144,
            "type" : "VEC3"
        },
        {
            "bufferView" : 2,
            "componentType" : 5126,
            "count" : 144,
            "type" : "VEC2"
        },
        {
            "bufferView" : 3,
            "componentType" : 5123,
            "count" : 852,
            "type" : "SCALAR"
        },
        {
            "bufferView" : 4,
            "componentType" : 5126,
            "count" : 2304,
            "max" : [
                1.1603357791900635,
                0.16518719494342804,
                1.065592885017395
            ],
            "min" : [
                -1.160335898399353,
                -0.16518718004226685,
                -1.2395793199539185
            ],
            "type" : "VEC3"
        },
        {
            "bufferView" : 5,
            "componentType" : 5126,
            "count" : 2304,
            "type" : "VEC3"
        },
        {
            "bufferView" : 6,
            "componentType" : 5126,
            "count" : 2304,
            "type" : "VEC2"
        },
        {
            "bufferView" : 7,
            "componentType" : 5123,
            "count" : 13824,
            "type" : "SCALAR"
        },
        {
            "bufferView" : 8,
            "componentType" : 5126,
            "count" : 3938,
            "max" : [
                0.9720513820648193,
                0.17178426682949066,
                0.9720513820648193
            ],
            "min" : [
                -0.9720514416694641,
                -1.0962101221084595,
                -0.9720979332923889
            ],
            "type" : "VEC3"
        },
        {
            "bufferView" : 9,
            "componentType" : 5126,
            "count" : 3938,
            "type" : "VEC3"
        },
        {
            "bufferView" : 10,
            "componentType" : 5126,
            "count" : 3938,
            "type" : "VEC2"
        },
        {
            "bufferView" : 11,
            "componentType" : 5123,
            "count" : 24192,
            "type" : "SCALAR"
        }
    ],
    "bufferViews" : [
        {
            "buffer" : 0,
            "byteLength" : 1728,
            "byteOffset" : 0
        },
        {
            "buffer" : 0,
            "byteLength" : 1728,
            "byteOffset" : 1728
        },
        {
            "buffer" : 0,
            "byteLength" : 1152,
            "byteOffset" : 3456
        },
        {
            "buffer" : 0,
            "byteLength" : 1704,
            "byteOffset" : 4608
        },
        {
            "buffer" : 0,
            "byteLength" : 27648,
            "byteOffset" : 6312
        },
        {
            "buffer" : 0,
            "byteLength" : 27648,
            "byteOffset" : 33960
        },
        {
            "buffer" : 0,
            "byteLength" : 18432,
            "byteOffset" : 61608
        },
        {
            "buffer" : 0,
            "byteLength" : 27648,
            "byteOffset" : 80040
        },
        {
            "buffer" : 0,
            "byteLength" : 47256,
            "byteOffset" : 107688
        },
        {
            "buffer" : 0,
            "byteLength" : 47256,
            "byteOffset" : 154944
        },
        {
            "buffer" : 0,
            "byteLength" : 31504,
            "byteOffset" : 202200
        },
        {
            "buffer" : 0,
            "byteLength" : 48384,
            "byteOffset" : 233704
        }
    ],
    "buffers" : [
        {
            "byteLength" : 282088,
            "uri" : "data:application/octet-stream;base64,"
        }
    ]
}
